<?xml version="1.0" encoding="utf-8"?>
<!-- The icon can be used freely in both personal and commercial projects with no attribution required, but always appreciated.
You may NOT sub-license, resell, rent, redistribute or otherwise transfer the icon without express written permission from iconmonstr.com -->
<!DOCTYPE svg PUBLIC "-//W3C//DTD SVG 1.1//EN" "http://www.w3.org/Graphics/SVG/1.1/DTD/svg11.dtd">
<svg version="1.1" xmlns="http://www.w3.org/2000/svg" xmlns:xlink="http://www.w3.org/1999/xlink" x="0px" y="0px" width="512px" height="512px" viewBox="0 0 512 512" enable-background="new 0 0 512 512" xml:space="preserve">
  <path id="500px-circle-outline-icon" d="M256,90c44.34,0,86.026,17.267,117.38,48.62C404.733,169.974,422,211.66,422,256	c0,44.34-17.267,86.026-48.62,117.38C342.026,404.732,300.34,422,256,422s-86.026-17.268-117.38-48.62 C107.267,342.026,90,300.34,90,256c0-44.34,17.267-86.026,48.62-117.38C169.974,107.267,211.66,90,256,90 M256,50 C142.229,50,50,142.229,50,256s92.229,206,206,206s206-92.229,206-206S369.771,50,256,50L256,50z M257.161,279.193 c17.195,19.931,36.402,36.656,62.606,36.656c34.849,0,56.12-26.715,56.12-60.661c0-33.791-21.633-59.038-55.795-59.038 c-28.263,0-45.989,18.412-62.932,38.926c-17.801-21.347-35.556-38.926-63.579-38.926c-32.373,0-55.47,23.482-55.47,59.687 c0,36.541,24.337,60.012,56.767,60.012C223.975,315.85,239.429,297.78,257.161,279.193z M168.929,256.486 c0-13.354,8.699-27.897,24.653-27.897c16.248,0,33.009,16.198,44.116,28.223c-10.771,12.574-26.582,26.274-43.143,26.274 C178.209,283.086,168.929,271.747,168.929,256.486z M276.624,256.812c11.553-12.498,25.839-28.223,42.82-28.223 c16.605,0,25.951,13.051,25.951,27.573c0,14.67-8.568,26.924-24.978,26.924C302.867,283.086,288.118,270.08,276.624,256.812z"/>
</svg>
