<?xml version="1.0" encoding="utf-8"?>
<!-- The icon can be used freely in both personal and commercial projects with no attribution required, but always appreciated. You may NOT sub-license, resell, rent, redistribute or otherwise transfer the icon without express written permission from iconmonstr.com -->
<!DOCTYPE svg PUBLIC "-//W3C//DTD SVG 1.1//EN" "http://www.w3.org/Graphics/SVG/1.1/DTD/svg11.dtd">
<svg version="1.1" xmlns="http://www.w3.org/2000/svg" xmlns:xlink="http://www.w3.org/1999/xlink" x="0px" y="0px" width="512px" height="512px" viewBox="0 0 512 512" enable-background="new 0 0 512 512" xml:space="preserve">
  <path id="instagram-circle-outline-icon" d="M256,90c44.34,0,86.026,17.267,117.38,48.62C404.733,169.974,422,211.66,422,256 c0,44.34-17.267,86.026-48.62,117.38C342.026,404.732,300.34,422,256,422s-86.026-17.268-117.38-48.62 C107.267,342.026,90,300.34,90,256c0-44.34,17.267-86.026,48.62-117.38C169.974,107.267,211.66,90,256,90 M256,50 C142.229,50,50,142.229,50,256s92.229,206,206,206s206-92.229,206-206S369.771,50,256,50L256,50z M298.938,227.722h57.523v88.307 c0,21.511-17.437,38.948-38.946,38.948H198.487c-21.511,0-38.949-17.438-38.949-38.948v-88.307h57.268 c-5.862,8.235-9.321,18.3-9.321,29.178c0,27.829,22.56,50.387,50.389,50.387c27.827,0,50.387-22.559,50.387-50.387 C308.26,246.021,304.799,235.957,298.938,227.722z M356.461,195.973v25.579H293.77c-9.14-9.28-21.845-15.04-35.896-15.04 c-14.055,0-26.759,5.759-35.898,15.04h-62.437v-25.579c0-13.128,6.503-24.729,16.454-31.785v41.938h7.985v-46.297 c1.812-0.729,3.689-1.322,5.624-1.773v48.071h7.986v-49.079c0.3-0.007,0.597-0.022,0.899-0.022h4.612v49.101h7.984v-49.101h106.431 C339.024,157.025,356.461,174.462,356.461,195.973z M338.661,179.558c0-3.45-2.799-6.247-6.249-6.247h-21.054 c-3.451,0-6.247,2.797-6.247,6.247v21.518c0,3.45,2.796,6.247,6.247,6.247h21.054c3.45,0,6.249-2.797,6.249-6.247V179.558z M219.054,256.9c0-11.621,5.141-22.058,13.257-29.178c2.848-2.497,6.061-4.583,9.55-6.17c4.886-2.222,10.304-3.47,16.013-3.47 c5.708,0,11.125,1.248,16.012,3.47c3.489,1.587,6.701,3.673,9.549,6.17c8.117,7.121,13.257,17.557,13.257,29.178 c0,21.405-17.413,38.819-38.817,38.819C236.468,295.719,219.054,278.305,219.054,256.9z M229.311,256.9 c0,15.844,12.845,28.69,28.689,28.69c15.846,0,28.689-12.846,28.689-28.69c0-15.846-12.844-28.69-28.689-28.69 C242.155,228.21,229.311,241.054,229.311,256.9z"/>
</svg>
