<?xml version="1.0" encoding="utf-8"?>
<!-- The icon can be used freely in both personal and commercial projects with no attribution required, but always appreciated. You may NOT sub-license, resell, rent, redistribute or otherwise transfer the icon without express written permission from iconmonstr.com -->
<!DOCTYPE svg PUBLIC "-//W3C//DTD SVG 1.1//EN" "http://www.w3.org/Graphics/SVG/1.1/DTD/svg11.dtd">
<svg version="1.1" xmlns="http://www.w3.org/2000/svg" xmlns:xlink="http://www.w3.org/1999/xlink" x="0px" y="0px" width="512px" height="512px" viewBox="0 0 512 512" style="enable-background:new 0 0 512 512;" xml:space="preserve">
  <path id="github-5-icon" d="M256,90c91.742,0,166,74.244,166,166c0,91.741-74.245,166-166,166c-91.743,0-166-74.245-166-166 C90,164.259,164.244,90,256,90z M256,50C142.229,50,50,142.229,50,256s92.229,206,206,206s206-92.229,206-206S369.771,50,256,50z M256.001,142.081c-64.506,0-116.803,52.298-116.803,116.802c0,51.604,33.467,95.395,79.883,110.832 c5.836,1.084,7.717-2.527,7.717-5.618V342.35c-32.486,7.07-39.258-13.773-39.258-13.773c-5.303-13.507-12.965-17.102-12.965-17.102 c-10.598-7.242,0.799-7.1,0.799-7.1c11.732,0.828,17.91,12.043,17.91,12.043c10.416,17.852,27.316,12.691,33.99,9.705 c1.045-7.548,4.068-12.699,7.414-15.617c-25.949-2.945-53.211-12.965-53.211-57.726c0-12.757,4.562-23.174,12.035-31.349 c-1.219-2.947-5.211-14.829,1.121-30.911c0,0,9.811-3.137,32.127,11.977c9.324-2.586,19.314-3.888,29.24-3.936 c9.924,0.048,19.932,1.35,29.256,3.936c22.301-15.114,32.09-11.977,32.09-11.977c6.359,16.083,2.357,27.964,1.15,30.911 c7.49,8.175,12.025,18.592,12.025,31.349c0,44.865-27.328,54.742-53.336,57.631c4.184,3.621,8.014,10.74,8.014,21.634 c0,15.627,0,28.213,0,32.052c0,3.109,1.873,6.749,7.795,5.608c46.387-15.465,79.807-59.229,79.807-110.822 C372.802,194.379,320.503,142.081,256.001,142.081z"/>
</svg>
