<?xml version="1.0" encoding="utf-8"?>
<!-- The icon can be used freely in both personal and commercial projects with no attribution required, but always appreciated. You may NOT sub-license, resell, rent, redistribute or otherwise transfer the icon without express written permission from iconmonstr.com -->
<!DOCTYPE svg PUBLIC "-//W3C//DTD SVG 1.1//EN" "http://www.w3.org/Graphics/SVG/1.1/DTD/svg11.dtd">
<svg version="1.1" xmlns="http://www.w3.org/2000/svg" xmlns:xlink="http://www.w3.org/1999/xlink" x="0px" y="0px" width="512px" height="512px" viewBox="0 0 512 512" enable-background="new 0 0 512 512" xml:space="preserve">
  <path id="twitter-5-icon" d="M256,90c91.742,0,166,74.244,166,166c0,91.741-74.245,166-166,166c-91.743,0-166-74.245-166-166 C90,164.259,164.244,90,256,90 M256,50C142.229,50,50,142.229,50,256s92.229,206,206,206s206-92.229,206-206S369.771,50,256,50 L256,50z M368.797,201.997c-7.712,3.42-15.999,5.732-24.697,6.771c8.876-5.322,15.696-13.748,18.906-23.79 c-8.311,4.928-17.512,8.506-27.307,10.435c-7.843-8.357-19.02-13.579-31.387-13.579c-27.756,0-48.16,25.902-41.889,52.8 c-35.736-1.793-67.423-18.913-88.63-44.928c-11.265,19.323-5.844,44.61,13.308,57.409c-7.049-0.223-13.682-2.158-19.478-5.379 c-0.466,19.922,13.811,38.552,34.489,42.708c-6.052,1.646-12.681,2.023-19.419,0.735c5.472,17.084,21.354,29.516,40.17,29.862 c-18.079,14.169-40.849,20.495-63.661,17.807c19.028,12.2,41.632,19.32,65.915,19.32c79.834,0,124.939-67.433,122.222-127.911 C355.741,218.194,363.031,210.62,368.797,201.997z"/>
</svg>
