<?xml version="1.0" encoding="utf-8"?>
<!-- Generator: Adobe Illustrator 19.2.1, SVG Export Plug-In . SVG Version: 6.00 Build 0)  -->
<svg version="1.1" id="Layer_1" xmlns="http://www.w3.org/2000/svg" xmlns:xlink="http://www.w3.org/1999/xlink" x="0px" y="0px"
	 viewBox="0 0 1919.3 1948.2" style="enable-background:new 0 0 1919.3 1948.2;" xml:space="preserve">
<style type="text/css">
	.st0{display:none;opacity:0.5;}
	.st1{display:inline;}
	.st2{fill:#FFFFFF; opacity:0.25;}
</style>
<g id="VWqH1W.tif" class="st0">
	<g>
		<g>
			<circle class="st2" cx="1182.7" cy="2.9" r="2.9"/>
			<circle class="st2" cx="1212.5" cy="102.6" r="3.2"/>
			<circle class="st2" cx="1241" cy="212.2" r="3.1"/>
			<circle class="st2" cx="1267.3" cy="302" r="3.3"/>
			<circle class="st2" cx="1157.8" cy="334.9" r="3.3"/>
			<circle class="st2" cx="1379.1" cy="277.9" r="2.7"/>
			<circle class="st2" cx="1287" cy="389.6" r="3.3"/>
			<circle class="st2" cx="1208.2" cy="707.3" r="2.9"/>
			<circle class="st2" cx="1284.8" cy="709.5" r="3.1"/>
			<circle class="st2" cx="1267.3" cy="808.1" r="2.8"/>
			<circle class="st2" cx="1181.9" cy="770.9" r="3.3"/>
			<circle class="st2" cx="1199.4" cy="854.1" r="3.1"/>
			<circle class="st2" cx="1740.6" cy="448.8" r="2.9"/>
			<circle class="st2" cx="1856.7" cy="564.9" r="3"/>
			<circle class="st2" cx="1907.1" cy="709.5" r="3.1"/>
			<circle class="st2" cx="1747.2" cy="751.2" r="2.8"/>
			<circle class="st2" cx="1685.8" cy="775.3" r="2.9"/>
			<circle class="st2" cx="1755.9" cy="816.9" r="3.4"/>
			<circle class="st2" cx="1896.2" cy="801.5" r="3.3"/>
			<circle class="st2" cx="1760.3" cy="1029.4" r="3.1"/>
			<circle class="st2" cx="1915.9" cy="1025" r="3.4"/>
			<circle class="st2" cx="1661.7" cy="1117.1" r="3.3"/>
			<circle class="st2" cx="1716.5" cy="1071.1" r="3.3"/>
			<circle class="st2" cx="1582.8" cy="1160.9" r="3"/>
			<circle class="st2" cx="1703.3" cy="1171.8" r="3"/>
			<circle class="st2" cx="1745" cy="1108.3" r="3"/>
			<circle class="st2" cx="1620.1" cy="1246.3" r="3.3"/>
			<circle class="st2" cx="1295.8" cy="1071.1" r="2.9"/>
			<circle class="st2" cx="1308.9" cy="1125.8" r="3.1"/>
			<circle class="st2" cx="1245.4" cy="1141.2" r="3"/>
			<circle class="st2" cx="1256.4" cy="1182.8" r="3.2"/>
			<circle class="st2" cx="1212.5" cy="1222.2" r="3.1"/>
			<circle class="st2" cx="1633.2" cy="1344.9" r="3"/>
			<circle class="st2" cx="1591.6" cy="1331.8" r="3.3"/>
			<circle class="st2" cx="1536.8" cy="1353.7" r="2.8"/>
			<circle class="st2" cx="1457.9" cy="1467.6" r="3.2"/>
			<circle class="st2" cx="1357.1" cy="1472" r="2.8"/>
			<circle class="st2" cx="1304.6" cy="1463.3" r="3.2"/>
			<circle class="st2" cx="1260.7" cy="1474.2" r="3.2"/>
			<circle class="st2" cx="1258.5" cy="1432.6" r="3.1"/>
			<circle class="st2" cx="1208.2" cy="1474.2" r="3"/>
			<circle class="st2" cx="1212.5" cy="1417.2" r="3.4"/>
			<circle class="st2" cx="921.1" cy="1432.6" r="3.3"/>
			<circle class="st2" cx="971.5" cy="1141.2" r="2.8"/>
			<circle class="st2" cx="995.6" cy="1169.6" r="2.8"/>
			<circle class="st2" cx="1013.1" cy="1261.7" r="3.1"/>
			<circle class="st2" cx="951.8" cy="1312.1" r="2.9"/>
			<circle class="st2" cx="879.5" cy="1145.5" r="2.8"/>
			<circle class="st2" cx="862" cy="1233.2" r="2.8"/>
			<circle class="st2" cx="605.6" cy="1351.5" r="3.4"/>
			<circle class="st2" cx="566.2" cy="1399.7" r="3"/>
			<circle class="st2" cx="605.6" cy="1601.3" r="1.6"/>
			<circle class="st2" cx="542.1" cy="1642.9" r="3"/>
			<circle class="st2" cx="373.4" cy="1294.5" r="2.8"/>
			<circle class="st2" cx="323" cy="1344.9" r="3.1"/>
			<circle class="st2" cx="290.1" cy="1375.6" r="3.3"/>
			<circle class="st2" cx="187.1" cy="1395.3" r="2.9"/>
			<circle class="st2" cx="257.2" cy="1483" r="3.2"/>
			<circle class="st2" cx="3.1" cy="876" r="2.8"/>
			<circle class="st2" cx="3.1" cy="976.8" r="3.1"/>
			<circle class="st2" cx="49.1" cy="963.7" r="3"/>
			<circle class="st2" cx="49.1" cy="1209.1" r="3"/>
			<circle class="st2" cx="123.6" cy="1171.8" r="3.1"/>
			<circle class="st2" cx="123.6" cy="1121.4" r="3.3"/>
			<circle class="st2" cx="178.3" cy="1112.7" r="3.1"/>
			<circle class="st2" cx="211.2" cy="1145.5" r="3.2"/>
			<circle class="st2" cx="187.1" cy="1195.9" r="3.1"/>
			<circle class="st2" cx="531.1" cy="998.7" r="3"/>
			<circle class="st2" cx="603.4" cy="981.2" r="3.2"/>
			<circle class="st2" cx="493.9" cy="908.9" r="3"/>
			<circle class="st2" cx="544.3" cy="862.9" r="3.4"/>
			<circle class="st2" cx="539.9" cy="788.4" r="3.1"/>
			<circle class="st2" cx="507" cy="713.9" r="2.8"/>
			<circle class="st2" cx="456.6" cy="672.3" r="2.8"/>
			<circle class="st2" cx="290.1" cy="661.3" r="2.9"/>
			<circle class="st2" cx="323" cy="613.1" r="3.4"/>
			<circle class="st2" cx="261.6" cy="571.5" r="3.2"/>
			<circle class="st2" cx="198.1" cy="606.5" r="2.9"/>
			<circle class="st2" cx="202.5" cy="646" r="2.9"/>
			<circle class="st2" cx="136.7" cy="648.2" r="3.1"/>
			<circle class="st2" cx="97.3" cy="556.1" r="2.9"/>
			<circle class="st2" cx="73.2" cy="718.3" r="3.3"/>
			<circle class="st2" cx="559.6" cy="369.9" r="3.2"/>
			<circle class="st2" cx="504.8" cy="277.9" r="3.2"/>
			<circle class="st2" cx="447.9" cy="326.1" r="3.3"/>
			<circle class="st2" cx="412.8" cy="398.4" r="3.3"/>
			<circle class="st2" cx="379.9" cy="295.4" r="3.2"/>
			<circle class="st2" cx="360.2" cy="212.2" r="3.3"/>
			<circle class="st2" cx="351.4" cy="343.6" r="3.4"/>
			<circle class="st2" cx="268.2" cy="286.6" r="3.3"/>
			<circle class="st2" cx="452.2" cy="497" r="3.2"/>
			<circle class="st2" cx="401.8" cy="538.6" r="3.2"/>
			<circle class="st2" cx="801.5" cy="794.9" r="3.2"/>
			<circle class="st2" cx="795" cy="730" r="3.3"/>
			<circle class="st2" cx="732.3" cy="801.4" r="2.8"/>
			<circle class="st2" cx="717.2" cy="738.7" r="3.2"/>
			<circle class="st2" cx="844.8" cy="805.7" r="3.3"/>
			<circle class="st2" cx="892.3" cy="846.8" r="3.3"/>
			<circle class="st2" cx="926.9" cy="931.1" r="2.8"/>
			<circle class="st2" cx="1089.1" cy="1822" r="2.9"/>
			<circle class="st2" cx="955" cy="1904.1" r="3.1"/>
			<circle class="st2" cx="985.3" cy="1724.7" r="3.3"/>
			<circle class="st2" cx="950.7" cy="1752.8" r="2.9"/>
			<circle class="st2" cx="918.3" cy="1785.2" r="3"/>
			<circle class="st2" cx="955" cy="1636" r="3.2"/>
			<circle class="st2" cx="888" cy="1607.9" r="3.4"/>
			<circle class="st2" cx="840.4" cy="1664.1" r="3.4"/>
			<circle class="st2" cx="1045.9" cy="1523.6" r="1.4"/>
			<circle class="st2" cx="1086.9" cy="1547.4" r="1.4"/>
			<circle class="st2" cx="1104.2" cy="1571.2" r="1.6"/>
			<circle class="st2" cx="1121.5" cy="1651.2" r="1.4"/>
			<circle class="st2" cx="667.5" cy="1902" r="3"/>
			<circle class="st2" cx="777.7" cy="1945.2" r="3"/>
		</g>
	</g>
</g>
</svg>
