<?xml version="1.0" encoding="utf-8"?>
<!-- Generator: Adobe Illustrator 19.2.1, SVG Export Plug-In . SVG Version: 6.00 Build 0)  -->
<svg version="1.1" id="Layer_1" xmlns="http://www.w3.org/2000/svg" xmlns:xlink="http://www.w3.org/1999/xlink" x="0px" y="0px"
	 viewBox="0 0 734.1 116.8" style="enable-background:new 0 0 734.1 116.8;" xml:space="preserve">
<style type="text/css">
	.st0{fill:#FFFFFF;}
</style>
<g>
	<g>
		<path class="st0" d="M178.1,55.5v6.8h-16.5v18.1h-7.2v-42h24.9v6.8h-17.7v10.3H178.1z"/>
		<path class="st0" d="M202.2,51.4c0.8,0.1,1.7,0.4,2.5,0.7l-2.5,6.5c-0.4-0.2-0.9-0.4-1.5-0.5c-0.6-0.1-1.2-0.2-1.8-0.2
			c-1.7,0-3,0.4-4.1,1.2c-1,0.8-1.8,1.7-2.4,2.6v18.6h-7.2V51.9h6.8v4.1c0.7-1.2,1.7-2.4,3-3.4s2.9-1.5,4.9-1.5
			C200.6,51.2,201.4,51.3,202.2,51.4z"/>
		<path class="st0" d="M227.6,52.4c1.8,0.8,3.4,1.8,4.8,3.2s2.5,2.9,3.2,4.8c0.8,1.8,1.2,3.8,1.2,5.9c0,2.1-0.4,4-1.2,5.8
			c-0.8,1.8-1.9,3.4-3.2,4.7s-3,2.4-4.8,3.2c-1.8,0.8-3.8,1.2-5.9,1.2c-2.1,0-4.1-0.4-5.9-1.2c-1.8-0.8-3.4-1.8-4.8-3.2
			s-2.5-2.9-3.2-4.7c-0.8-1.8-1.2-3.8-1.2-5.8c0-2.1,0.4-4,1.2-5.9c0.8-1.8,1.9-3.4,3.2-4.8s3-2.4,4.8-3.2c1.8-0.8,3.8-1.1,5.9-1.1
			C223.8,51.2,225.8,51.6,227.6,52.4z M225,73.7c1-0.4,1.8-1,2.5-1.8c0.7-0.7,1.2-1.6,1.6-2.6c0.4-1,0.5-2.1,0.5-3.2
			c0-1.1-0.2-2.2-0.5-3.1c-0.4-1-0.9-1.9-1.6-2.6c-0.7-0.8-1.5-1.4-2.5-1.8s-2.1-0.7-3.3-0.7c-1.2,0-2.3,0.2-3.3,0.7s-1.8,1-2.5,1.8
			c-0.7,0.8-1.2,1.6-1.6,2.6s-0.5,2-0.5,3.1c0,1.1,0.2,2.2,0.5,3.2s0.9,1.9,1.6,2.6c0.7,0.7,1.5,1.3,2.5,1.8s2.1,0.7,3.3,0.7
			C222.9,74.4,224,74.2,225,73.7z"/>
		<path class="st0" d="M261.4,51.9c1.3,0.5,2.4,1.2,3.3,2.1s1.7,2,2.3,3.4s0.8,2.8,0.8,4.6v18.4h-7.2V63.8c0-2-0.5-3.5-1.6-4.4
			s-2.4-1.4-3.8-1.4c-1.5,0-2.7,0.4-3.7,1.2c-0.9,0.8-1.6,1.6-2.2,2.5v18.8h-7.2V51.9h6.7v4.1c0.3-0.5,0.7-1.1,1.2-1.6
			c0.5-0.6,1.1-1.1,1.8-1.6c0.7-0.5,1.5-0.9,2.4-1.2c0.9-0.3,1.9-0.4,3.1-0.4C258.8,51.2,260.1,51.5,261.4,51.9z"/>
		<path class="st0" d="M278.3,51.9v-8.5h7.2v8.5h8.6v6.5h-8.6v11.5c0,0.9,0.1,1.6,0.3,2.2c0.2,0.6,0.5,1,0.8,1.4
			c0.3,0.3,0.7,0.6,1.2,0.7c0.4,0.1,0.9,0.2,1.3,0.2c0.6,0,1.2-0.1,1.7-0.3c0.5-0.2,1-0.4,1.4-0.7l2.6,5.9c-0.8,0.6-1.9,1-3.1,1.4
			c-1.2,0.3-2.4,0.5-3.7,0.5c-1.4,0-2.7-0.2-3.9-0.7c-1.2-0.5-2.2-1.2-3.1-2s-1.6-1.9-2-3.2c-0.5-1.2-0.7-2.6-0.7-4.1V58.4h-5.6
			v-6.5H278.3z"/>
		<path class="st0" d="M342.5,55.4v6.8h-16.8v11.3h18.6v6.8h-25.8v-42h25.4v6.8h-18.2v10.2H342.5z"/>
		<path class="st0" d="M369.6,51.9c1.3,0.5,2.4,1.2,3.3,2.1s1.7,2,2.3,3.4s0.8,2.8,0.8,4.6v18.4h-7.2V63.8c0-2-0.5-3.5-1.6-4.4
			s-2.4-1.4-3.8-1.4c-1.5,0-2.7,0.4-3.7,1.2c-0.9,0.8-1.6,1.6-2.2,2.5v18.8h-7.2V51.9h6.7v4.1c0.3-0.5,0.7-1.1,1.2-1.6
			c0.5-0.6,1.1-1.1,1.8-1.6c0.7-0.5,1.5-0.9,2.4-1.2c0.9-0.3,1.9-0.4,3.1-0.4C367.1,51.2,368.4,51.5,369.6,51.9z"/>
		<path class="st0" d="M403.8,80.4v-3.7c-0.7,1.2-1.8,2.2-3.2,3.1c-1.4,0.9-3.2,1.3-5.4,1.3c-1.8,0-3.6-0.4-5.2-1.1
			c-1.7-0.7-3.1-1.8-4.4-3.1c-1.3-1.3-2.3-2.9-3-4.7c-0.8-1.8-1.1-3.8-1.1-6c0-2.2,0.4-4.2,1.1-6c0.8-1.8,1.8-3.4,3-4.7
			c1.3-1.3,2.7-2.4,4.4-3.1c1.7-0.7,3.4-1.1,5.2-1.1c2,0,3.7,0.4,5,1.2c1.3,0.8,2.3,1.6,3.1,2.5V35h7.2v45.4H403.8z M400.7,59.1
			c-1.1-0.8-2.6-1.2-4.3-1.2c-2.4,0-4.2,0.8-5.6,2.3c-1.4,1.6-2.1,3.5-2.1,5.9s0.7,4.3,2.1,5.9c1.4,1.6,3.2,2.3,5.6,2.3
			c1.8,0,3.2-0.4,4.3-1.2c1.1-0.8,2-1.7,2.6-2.8v-8.5C402.7,60.9,401.8,59.9,400.7,59.1z"/>
		<path class="st0" d="M458.9,40c2.6,1.1,4.8,2.5,6.6,4.4c1.8,1.9,3.2,4.1,4.3,6.6c1,2.6,1.5,5.4,1.5,8.4c0,3-0.5,5.8-1.5,8.4
			c-1,2.6-2.4,4.8-4.3,6.6s-4,3.3-6.6,4.4s-5.4,1.6-8.4,1.6H437v-42h13.6C453.6,38.4,456.4,38.9,458.9,40z M456.2,72.4
			c1.6-0.8,3-1.8,4.2-3.1c1.2-1.3,2-2.8,2.7-4.5c0.6-1.7,0.9-3.5,0.9-5.4s-0.3-3.7-0.9-5.5c-0.6-1.7-1.5-3.2-2.7-4.5
			c-1.2-1.3-2.6-2.3-4.2-3.1c-1.6-0.8-3.5-1.1-5.5-1.1h-6.5v28.3h6.5C452.7,73.5,454.5,73.2,456.2,72.4z"/>
		<path class="st0" d="M494.8,52.3c1.7,0.7,3.3,1.7,4.6,3c1.3,1.3,2.3,2.9,3.1,4.7c0.8,1.8,1.1,3.8,1.1,6v1.1c0,0.5,0,1-0.1,1.6
			h-21.2c0.2,0.7,0.5,1.4,0.9,2s1,1.3,1.7,1.8c0.7,0.5,1.5,1,2.4,1.3c0.9,0.4,2,0.5,3.1,0.5c1.2,0,2.5-0.2,3.9-0.7s2.7-1.2,3.8-2.2
			l3.6,5.4c-1.2,1-2.7,1.9-4.7,2.8s-4.2,1.3-6.7,1.3c-2.2,0-4.2-0.4-6-1.1c-1.9-0.8-3.5-1.8-4.9-3.2c-1.4-1.4-2.5-3-3.2-4.8
			c-0.8-1.8-1.2-3.8-1.2-5.9c0-2,0.4-4,1.1-5.8c0.7-1.8,1.7-3.4,3-4.7c1.3-1.3,2.8-2.4,4.5-3.2c1.8-0.8,3.7-1.2,5.7-1.2
			C491.3,51.2,493.1,51.6,494.8,52.3z M495.9,61.6c-0.3-0.7-0.7-1.3-1.3-1.9c-0.6-0.6-1.3-1.1-2.2-1.4s-1.9-0.5-3.1-0.5
			c-1.2,0-2.2,0.2-3,0.5s-1.5,0.8-2.1,1.4s-1,1.2-1.3,1.9c-0.3,0.7-0.5,1.3-0.5,2h14.1C496.4,62.9,496.2,62.3,495.9,61.6z"/>
		<path class="st0" d="M520.6,67.4l7.2-15.5h7.7l-15.1,29.9l-15.1-29.9h8L520.6,67.4z"/>
		<path class="st0" d="M557.2,52.3c1.7,0.7,3.3,1.7,4.6,3c1.3,1.3,2.3,2.9,3.1,4.7c0.8,1.8,1.1,3.8,1.1,6v1.1c0,0.5,0,1-0.1,1.6
			h-21.2c0.2,0.7,0.5,1.4,0.9,2s1,1.3,1.7,1.8c0.7,0.5,1.5,1,2.4,1.3c0.9,0.4,2,0.5,3.1,0.5c1.2,0,2.5-0.2,3.9-0.7s2.7-1.2,3.8-2.2
			l3.6,5.4c-1.2,1-2.7,1.9-4.7,2.8s-4.2,1.3-6.7,1.3c-2.2,0-4.2-0.4-6-1.1c-1.9-0.8-3.5-1.8-4.9-3.2c-1.4-1.4-2.5-3-3.2-4.8
			c-0.8-1.8-1.2-3.8-1.2-5.9c0-2,0.4-4,1.1-5.8c0.7-1.8,1.7-3.4,3-4.7c1.3-1.3,2.8-2.4,4.5-3.2c1.8-0.8,3.7-1.2,5.7-1.2
			C553.6,51.2,555.4,51.6,557.2,52.3z M558.3,61.6c-0.3-0.7-0.7-1.3-1.3-1.9c-0.6-0.6-1.3-1.1-2.2-1.4s-1.9-0.5-3.1-0.5
			c-1.2,0-2.2,0.2-3,0.5s-1.5,0.8-2.1,1.4s-1,1.2-1.3,1.9c-0.3,0.7-0.5,1.3-0.5,2h14.1C558.7,62.9,558.6,62.3,558.3,61.6z"/>
		<path class="st0" d="M579.3,35v45.4h-7.2V35H579.3z"/>
		<path class="st0" d="M606.5,52.4c1.8,0.8,3.4,1.8,4.8,3.2s2.5,2.9,3.2,4.8c0.8,1.8,1.2,3.8,1.2,5.9c0,2.1-0.4,4-1.2,5.8
			c-0.8,1.8-1.9,3.4-3.2,4.7s-3,2.4-4.8,3.2c-1.8,0.8-3.8,1.2-5.9,1.2c-2.1,0-4.1-0.4-5.9-1.2c-1.8-0.8-3.4-1.8-4.8-3.2
			s-2.5-2.9-3.2-4.7c-0.8-1.8-1.2-3.8-1.2-5.8c0-2.1,0.4-4,1.2-5.9c0.8-1.8,1.9-3.4,3.2-4.8s3-2.4,4.8-3.2c1.8-0.8,3.8-1.1,5.9-1.1
			C602.7,51.2,604.7,51.6,606.5,52.4z M603.9,73.7c1-0.4,1.8-1,2.5-1.8c0.7-0.7,1.2-1.6,1.6-2.6c0.4-1,0.5-2.1,0.5-3.2
			c0-1.1-0.2-2.2-0.5-3.1c-0.4-1-0.9-1.9-1.6-2.6c-0.7-0.8-1.5-1.4-2.5-1.8s-2.1-0.7-3.3-0.7c-1.2,0-2.3,0.2-3.3,0.7s-1.8,1-2.5,1.8
			c-0.7,0.8-1.2,1.6-1.6,2.6s-0.5,2-0.5,3.1c0,1.1,0.2,2.2,0.5,3.2s0.9,1.9,1.6,2.6c0.7,0.7,1.5,1.3,2.5,1.8s2.1,0.7,3.3,0.7
			C601.8,74.4,602.9,74.2,603.9,73.7z"/>
		<path class="st0" d="M627.7,55.7c0.8-1.2,1.9-2.2,3.3-3.1c1.4-0.9,3.2-1.3,5.4-1.3c1.8,0,3.5,0.4,5.2,1.1c1.7,0.7,3.1,1.8,4.4,3.1
			s2.3,2.9,3,4.7c0.8,1.8,1.1,3.8,1.1,6c0,2.2-0.4,4.2-1.1,6c-0.8,1.8-1.8,3.4-3,4.7s-2.7,2.4-4.4,3.1c-1.7,0.7-3.4,1.1-5.2,1.1
			c-1.2,0-2.2-0.1-3.1-0.4c-0.9-0.3-1.7-0.6-2.3-1c-0.7-0.4-1.2-0.8-1.6-1.2s-0.8-0.8-1-1.1v16.7h-7.2V51.9h6.7V55.7z M630.8,73.2
			c1.1,0.8,2.6,1.2,4.3,1.2c2.4,0,4.2-0.8,5.6-2.3c1.4-1.6,2.1-3.5,2.1-5.9s-0.7-4.3-2.1-5.9s-3.2-2.3-5.6-2.3
			c-1.8,0-3.2,0.4-4.3,1.2c-1.1,0.8-2,1.7-2.6,2.8v8.5C628.9,71.5,629.7,72.4,630.8,73.2z"/>
		<path class="st0" d="M673.3,52.3c1.7,0.7,3.3,1.7,4.6,3c1.3,1.3,2.3,2.9,3.1,4.7c0.8,1.8,1.1,3.8,1.1,6v1.1c0,0.5,0,1-0.1,1.6
			h-21.2c0.2,0.7,0.5,1.4,0.9,2s1,1.3,1.7,1.8c0.7,0.5,1.5,1,2.4,1.3c0.9,0.4,2,0.5,3.1,0.5c1.2,0,2.5-0.2,3.9-0.7s2.7-1.2,3.8-2.2
			l3.6,5.4c-1.2,1-2.7,1.9-4.7,2.8s-4.2,1.3-6.7,1.3c-2.2,0-4.2-0.4-6-1.1c-1.9-0.8-3.5-1.8-4.9-3.2c-1.4-1.4-2.5-3-3.2-4.8
			c-0.8-1.8-1.2-3.8-1.2-5.9c0-2,0.4-4,1.1-5.8c0.7-1.8,1.7-3.4,3-4.7c1.3-1.3,2.8-2.4,4.5-3.2c1.8-0.8,3.7-1.2,5.7-1.2
			C669.8,51.2,671.6,51.6,673.3,52.3z M674.4,61.6c-0.3-0.7-0.7-1.3-1.3-1.9c-0.6-0.6-1.3-1.1-2.2-1.4s-1.9-0.5-3.1-0.5
			c-1.2,0-2.2,0.2-3,0.5s-1.5,0.8-2.1,1.4s-1,1.2-1.3,1.9c-0.3,0.7-0.5,1.3-0.5,2h14.1C674.9,62.9,674.7,62.3,674.4,61.6z"/>
		<path class="st0" d="M704.4,51.4c0.8,0.1,1.7,0.4,2.5,0.7l-2.5,6.5c-0.4-0.2-0.9-0.4-1.5-0.5c-0.6-0.1-1.2-0.2-1.8-0.2
			c-1.7,0-3,0.4-4.1,1.2c-1,0.8-1.8,1.7-2.4,2.6v18.6h-7.2V51.9h6.8v4.1c0.7-1.2,1.7-2.4,3-3.4s2.9-1.5,4.9-1.5
			C702.8,51.2,703.6,51.3,704.4,51.4z"/>
		<path class="st0" d="M714.4,72.1c0.6,0.5,1.2,0.9,2,1.3c0.7,0.4,1.6,0.7,2.5,1c0.9,0.3,1.9,0.4,3,0.4c1.3,0,2.4-0.2,3.4-0.7
			c1-0.4,1.5-1.1,1.5-2.1c0-0.5-0.1-0.9-0.5-1.2c-0.3-0.3-0.7-0.5-1.2-0.8c-0.5-0.2-1.1-0.4-1.8-0.5c-0.7-0.1-1.4-0.3-2.2-0.5
			c-1.3-0.3-2.6-0.7-3.9-1.1s-2.4-1-3.4-1.7c-1-0.7-1.8-1.5-2.4-2.5c-0.6-0.9-0.9-2.1-0.9-3.4c0-1.2,0.3-2.4,0.8-3.5
			c0.5-1.1,1.3-2.1,2.4-2.9c1-0.9,2.3-1.5,3.8-2s3.2-0.8,5.1-0.8c2.5,0,4.7,0.4,6.5,1.1c1.8,0.8,3.3,1.5,4.4,2.3l-3.6,5.3
			c-0.8-0.6-1.9-1.2-3.1-1.7c-1.2-0.5-2.6-0.8-4.1-0.8c-1.3,0-2.4,0.2-3.5,0.7c-1,0.5-1.6,1.2-1.6,2c0,0.8,0.5,1.4,1.6,1.8
			c1,0.4,2.8,0.8,5.2,1.3c1.2,0.3,2.4,0.6,3.6,1c1.2,0.4,2.2,0.9,3.1,1.6s1.6,1.4,2.1,2.4s0.8,2.1,0.8,3.4c0,1.5-0.3,2.9-1,4
			c-0.7,1.2-1.6,2.1-2.7,2.9s-2.4,1.4-3.9,1.8s-3,0.6-4.7,0.6c-1.5,0-2.9-0.1-4.2-0.4c-1.3-0.3-2.5-0.7-3.6-1.2
			c-1.1-0.5-2.1-1-2.9-1.6s-1.6-1.2-2.2-1.9l4-5.2C713.3,71.2,713.9,71.6,714.4,72.1z"/>
	</g>
	<g id="Logo_2_1_">
		<g>
			<path class="st0" d="M13.8,64.4V52.8c2.2-0.1,3.9-0.5,5.1-1c1.1-0.5,2.1-1.5,3-2.8c0.8-1.3,1.4-2.9,1.7-4.8
				c0.2-1.5,0.4-4,0.4-7.6c0-5.9,0.3-10,0.8-12.3c0.6-2.3,1.6-4.2,3-5.6c1.4-1.4,3.6-2.5,6.3-3.3c1.9-0.5,4.8-0.8,8.9-0.8h2.4v10.9
				c-3.4,0-5.6,0.2-6.6,0.6c-1,0.4-1.7,1-2.1,1.7c-0.5,0.8-0.7,2.1-0.7,4c0,1.9-0.1,5.5-0.4,10.9c-0.2,3-0.6,5.4-1.2,7.3
				c-0.6,1.9-1.5,3.4-2.5,4.6c-1,1.2-2.5,3.2-4.6,4.5c1.8,1,3.3,2.2,4.5,3.6c1.2,1.4,2,3.1,2.7,5c0.6,2,1,4.6,1.2,7.9
				c0.2,5,0.3,8.3,0.3,9.7c0,2,0.2,3.4,0.7,4.2c0.5,0.8,1.2,1.4,2.2,1.8c1,0.4,3.2,0.6,6.5,0.6v10.9H43c-4.2,0-7.3-0.3-9.6-1
				c-2.2-0.7-4.1-1.7-5.6-3.3c-1.5-1.5-2.5-3.4-3.1-5.6c-0.5-2.2-0.8-5.7-0.8-10.5c0-5.6-0.2-9.2-0.7-10.9c-0.7-2.4-1.7-4.2-3.1-5.2
				C18.8,65.1,16.7,64.5,13.8,64.4z"/>
			<path class="st0" d="M106.3,64.4c-2.2,0.1-3.9,0.5-5.1,1c-1.1,0.5-2.1,1.5-2.9,2.8c-0.8,1.3-1.4,2.9-1.7,4.8
				c-0.2,1.5-0.4,4-0.4,7.6c0,5.9-0.3,10-0.8,12.3c-0.5,2.3-1.5,4.2-3,5.6c-1.4,1.4-3.6,2.5-6.4,3.3c-1.9,0.5-4.8,0.8-8.9,0.8h-2.4
				V91.7c3.3,0,5.5-0.2,6.5-0.6c1-0.4,1.8-1,2.2-1.8c0.5-0.8,0.7-2.1,0.7-3.9c0-1.9,0.1-5.4,0.4-10.6c0.2-3.2,0.6-5.7,1.2-7.6
				c0.7-1.9,1.6-3.5,2.7-4.8c1.1-1.3,2.6-2.5,4.3-3.5c-2.3-1.5-3.9-3.6-5-5c-1.4-2-2.4-4.6-3-7.6c-0.3-2.1-0.6-6.8-0.7-14
				c0-2.3-0.2-3.8-0.6-4.6c-0.4-0.8-1.1-1.3-2.1-1.8c-1-0.4-3.2-0.6-6.7-0.6V14.5h2.4c4.2,0,7.3,0.3,9.6,1c2.2,0.6,4.1,1.7,5.6,3.3
				c1.5,1.5,2.5,3.4,3.1,5.6c0.5,2.2,0.8,5.7,0.8,10.5c0,5.6,0.2,9.2,0.7,10.9c0.7,2.4,1.7,4.2,3.1,5.2c1.4,1,3.5,1.6,6.3,1.8V64.4z
				"/>
		</g>
		<g>
			<path class="st0" d="M45.5,107.1H14c-2.3,0-4.2-1.8-4.2-4.1V13.8c0-2.3,1.9-4.1,4.2-4.1h31.5V0H14H0v13.8V103v13.8h14h31.5V107.1
				z"/>
			<path class="st0" d="M106,0H74.6v9.7H106c2.3,0,4.2,1.8,4.2,4.1V103c0,2.3-1.9,4.1-4.2,4.1H74.6v9.7H106h14V103V13.8V0H106z"/>
		</g>
	</g>
</g>
</svg>
